<svg width="114" height="113" viewBox="0 0 114 113" fill="none" xmlns="http://www.w3.org/2000/svg">
<path d="M80.1438 94.9413C81.0033 95.6846 81.9344 96.3457 82.926 96.9139C84.9403 98.0671 87.1633 98.817 89.469 99.118C90.1256 99.2038 90.7852 99.2511 91.4446 99.2635C87.0748 103.214 82.0436 106.388 76.5706 108.638C70.3658 111.187 63.716 112.5 57.0002 112.5C50.2844 112.5 43.6343 111.187 37.4299 108.638C31.956 106.388 26.9239 103.214 22.554 99.2635C23.2134 99.2511 23.873 99.2039 24.5295 99.118C26.8351 98.8171 29.0584 98.0671 31.0725 96.9139H31.0735C32.0649 96.346 32.9949 95.6838 33.8538 94.9413C36.0684 96.4624 38.434 97.7655 40.9182 98.827L41.4407 99.0458C46.3736 101.072 51.6607 102.116 57.0002 102.116C62.3396 102.116 67.6259 101.072 72.5588 99.0458C75.2332 97.9465 77.7749 96.5688 80.1438 94.9413ZM72.5032 13.4344C73.8769 13.868 75.2339 14.3591 76.5696 14.9081C82.5804 17.378 88.0584 20.9625 92.7122 25.4667L93.1604 25.9052C97.9085 30.6157 101.675 36.208 104.244 42.3622C106.814 48.5164 108.136 55.1123 108.136 61.7733C108.136 65.4305 107.736 69.0675 106.951 72.6229C106.61 72.0599 106.236 71.5144 105.831 70.9911C104.503 69.2744 102.869 67.8173 101.01 66.6913L100.635 66.4706L100.217 66.2382C99.3519 65.7732 98.4501 65.3826 97.5227 65.0673C97.6133 63.9731 97.6614 62.8744 97.6614 61.7733C97.6614 56.4745 96.6089 51.2279 94.5657 46.3329C92.5218 41.4382 89.5266 36.9909 85.7502 33.245C82.4452 29.9659 78.5972 27.2828 74.3811 25.3046C74.5997 24.1954 74.7112 23.0651 74.7112 21.9296C74.7111 19.6211 74.2525 17.3355 73.3625 15.203C73.1094 14.5966 72.8217 14.0066 72.5032 13.4344ZM41.4944 13.4344C41.1761 14.0065 40.8891 14.5969 40.636 15.203C39.7457 17.3355 39.2874 19.6212 39.2874 21.9296C39.2874 23.0651 39.3988 24.1955 39.6174 25.3046C35.4015 27.2827 31.5543 29.9661 28.2493 33.245C24.4733 36.991 21.4776 41.4381 19.4338 46.3329C17.3901 51.2279 16.3381 56.4751 16.3381 61.7733C16.3381 62.8743 16.3865 63.9727 16.4768 65.0663C15.5492 65.3817 14.6477 65.7732 13.7825 66.2382L13.3635 66.4706C11.3495 67.6243 9.5835 69.1598 8.16724 70.9911C7.76253 71.5144 7.38883 72.0591 7.04712 72.6219C6.26253 69.0668 5.86354 65.4298 5.86353 61.7733C5.86353 55.1123 7.18565 48.5164 9.75513 42.3622C12.3246 36.208 16.091 30.6157 20.8391 25.9052C25.5874 21.1946 31.2255 17.4576 37.4299 14.9081C38.7654 14.3593 40.1215 13.8678 41.4944 13.4344Z" fill="#F5E9E2" stroke="#F5E9E2"/>
<path d="M13.6363 65.9709C11.672 67.0658 9.95016 68.5231 8.56932 70.2605C7.18848 71.9973 6.17561 73.9804 5.58857 76.0951C5.00147 78.2105 4.85171 80.4164 5.14777 82.5873C5.44382 84.7582 6.17993 86.8513 7.31411 88.7477C8.44824 90.644 9.95816 92.3058 11.7577 93.6386C13.5573 94.9719 15.6112 95.9496 17.8022 96.5165C19.9932 97.0828 22.2784 97.2273 24.5273 96.9417C26.7762 96.656 28.9447 95.9451 30.9091 94.8508C32.8735 93.7559 34.5952 92.298 35.9761 90.5612C37.3569 88.8238 38.3698 86.8413 38.9569 84.726C39.544 82.6112 39.6937 80.4053 39.3977 78.2344C39.1016 76.0634 38.3655 73.9704 37.2313 72.074C36.0972 70.1776 34.5872 68.5158 32.7877 67.1825C30.9881 65.8497 28.9342 64.8721 26.7432 64.3052C24.5522 63.7383 22.2671 63.5938 20.0181 63.8794C17.7693 64.1657 15.6008 64.876 13.6363 65.9709Z" stroke="#F5E9E2" stroke-width="10"/>
<path d="M100.364 65.9709C102.328 67.0658 104.05 68.5231 105.431 70.2605C106.812 71.9979 107.825 73.9804 108.412 76.0951C108.999 78.2105 109.148 80.4164 108.852 82.5873C108.556 84.7582 107.82 86.8513 106.686 88.7477C105.552 90.644 104.042 92.3058 102.243 93.6386C100.443 94.9719 98.389 95.9496 96.1977 96.5165C94.0069 97.0828 91.7218 97.2273 89.4728 96.9417C87.2239 96.656 85.0556 95.9451 83.0911 94.8508C81.1266 93.7559 79.4051 92.298 78.0239 90.5612C76.6432 88.8238 75.6304 86.8413 75.0431 84.726C74.4559 82.6112 74.3062 80.4053 74.6027 78.2344C74.8986 76.0634 75.6344 73.9704 76.7687 72.074C77.9029 70.1776 79.4132 68.5158 81.2124 67.1825C83.0122 65.8497 85.066 64.8721 87.2567 64.3052C89.4481 63.7383 91.7333 63.5938 93.9822 63.8794C96.2311 64.1657 98.3994 64.876 100.364 65.9709Z" stroke="#F5E9E2" stroke-width="10"/>
<path d="M39.9092 21.6737C39.9092 23.8633 40.3513 26.0315 41.2101 28.0544C42.0691 30.0774 43.3279 31.9154 44.915 33.4638C46.5023 35.0121 48.3863 36.2402 50.46 37.0782C52.5331 37.9161 54.7555 38.3474 57.0001 38.3474C59.2447 38.3474 61.4671 37.9161 63.5408 37.0782C65.6139 36.2402 67.4979 35.0121 69.0851 33.4638C70.6722 31.9154 71.9313 30.0774 72.7898 28.0544C73.6489 26.0315 74.091 23.8633 74.091 21.6737C74.091 19.484 73.6489 17.3159 72.7898 15.2929C71.9313 13.27 70.6722 11.4319 69.0851 9.88361C67.4979 8.33529 65.6139 7.10711 63.5402 6.2692C61.4671 5.43129 59.2447 5 57.0001 5C54.7555 5 52.5331 5.43129 50.4594 6.2692C48.3863 7.10716 46.5023 8.33529 44.915 9.88361C43.3279 11.4319 42.069 13.27 41.2101 15.2929C40.3513 17.3159 39.9092 19.4841 39.9092 21.6737Z" stroke="#F5E9E2" stroke-width="10"/>
</svg>
